<svg width="25" height="24" viewBox="0 0 25 24" fill="none" xmlns="http://www.w3.org/2000/svg">
<g clip-path="url(#clip0_1_11)">
<path fill-rule="evenodd" clip-rule="evenodd" d="M17.7042 8.293C17.7965 8.19749 17.9068 8.12131 18.0288 8.0689C18.1508 8.01649 18.282 7.9889 18.4148 7.98775C18.5476 7.9866 18.6793 8.0119 18.8022 8.06218C18.9251 8.11246 19.0367 8.18671 19.1306 8.28061C19.2245 8.3745 19.2987 8.48615 19.349 8.60905C19.3993 8.73194 19.4246 8.86362 19.4235 8.9964C19.4223 9.12918 19.3947 9.2604 19.3423 9.3824C19.2899 9.50441 19.2137 9.61475 19.1182 9.707L13.1182 15.707C12.936 15.8893 12.6904 15.9941 12.4327 15.9997C12.1751 16.0053 11.9252 15.9112 11.7352 15.737L5.73521 10.237C5.53974 10.0577 5.4235 9.80812 5.41206 9.54313C5.4064 9.41192 5.42663 9.28088 5.47161 9.1575C5.51659 9.03411 5.58543 8.92078 5.67421 8.824C5.76298 8.72722 5.86995 8.64886 5.989 8.59342C6.10805 8.53798 6.23686 8.50652 6.36807 8.50086C6.63306 8.48942 6.89174 8.58371 7.08721 8.763L12.3812 13.616L17.7042 8.293Z" fill="#848895"/>
</g>
<defs>
<clipPath id="clip0_1_11">
<rect width="24" height="24" fill="white" transform="translate(0.411133)"/>
</clipPath>
</defs>
</svg>
