<svg width="28" height="16" viewBox="0 0 28 16" fill="none" xmlns="http://www.w3.org/2000/svg">
<rect x="0.0275879" width="27.4711" height="16" fill="#848895"/>
<g clip-path="url(#clip0_1_385)">
<path fill-rule="evenodd" clip-rule="evenodd" d="M14.0276 0C9.60992 0 6.02759 3.67233 6.02759 8.20233C6.02759 11.8267 8.31992 14.9013 11.4986 15.9857C11.8986 16.0617 12.0453 15.808 12.0453 15.5913C12.0453 15.3957 12.0376 14.7497 12.0343 14.0643C9.80859 14.5603 9.33892 13.0963 9.33892 13.0963C8.97492 12.1483 8.45059 11.8963 8.45059 11.8963C7.72492 11.387 8.50559 11.3977 8.50559 11.3977C9.30892 11.4553 9.73192 12.2427 9.73192 12.2427C10.4453 13.4967 11.6033 13.1343 12.0599 12.9247C12.1316 12.3947 12.3389 12.0327 12.5676 11.828C10.7909 11.6203 8.92292 10.917 8.92292 7.774C8.92292 6.87867 9.23525 6.14667 9.74725 5.57233C9.66392 5.36567 9.39025 4.53133 9.82459 3.40167C9.82459 3.40167 10.4966 3.18133 12.0253 4.24233C12.6633 4.06067 13.3479 3.96967 14.0276 3.96633C14.7076 3.96967 15.3926 4.06067 16.0319 4.24233C17.5586 3.18133 18.2296 3.40167 18.2296 3.40167C18.6649 4.53167 18.3909 5.36567 18.3079 5.57233C18.8213 6.14667 19.1313 6.87867 19.1313 7.774C19.1313 10.9247 17.2599 11.6183 15.4783 11.8213C15.7653 12.076 16.0209 12.575 16.0209 13.3403C16.0209 14.4377 16.0119 15.321 16.0119 15.5913C16.0119 15.8097 16.1559 16.0653 16.5613 15.9847C19.7383 14.899 22.0276 11.8253 22.0276 8.20233C22.0276 3.67233 18.4459 0 14.0276 0Z" fill="black"/>
<path fill-rule="evenodd" clip-rule="evenodd" d="M9.05752 11.7768C9.03985 11.8178 8.97752 11.8298 8.92052 11.8018C8.86252 11.7751 8.82985 11.7195 8.84852 11.6785C8.86585 11.6365 8.92852 11.6251 8.98652 11.6528C9.04452 11.6798 9.07752 11.7361 9.05752 11.7768ZM9.38152 12.1475C9.34352 12.1835 9.26885 12.1668 9.21819 12.1095C9.16585 12.0521 9.15619 11.9758 9.19485 11.9391C9.23419 11.9025 9.30652 11.9198 9.35885 11.9768C9.41119 12.0348 9.42152 12.1108 9.38152 12.1475ZM9.69685 12.6198C9.64819 12.6548 9.56785 12.6221 9.51819 12.5491C9.46919 12.4758 9.46919 12.3885 9.51952 12.3535C9.56919 12.3185 9.64785 12.3501 9.69819 12.4225C9.74719 12.4965 9.74719 12.5841 9.69685 12.6198ZM10.1292 13.0765C10.0852 13.1258 9.99185 13.1125 9.92352 13.0448C9.85352 12.9788 9.83419 12.8848 9.87819 12.8351C9.92252 12.7855 10.0165 12.7995 10.0852 12.8665C10.1549 12.9325 10.1759 13.0271 10.1292 13.0765ZM10.7252 13.3411C10.7059 13.4055 10.6159 13.4345 10.5252 13.4075C10.4352 13.3791 10.3759 13.3041 10.3939 13.2391C10.4129 13.1745 10.5032 13.1438 10.5945 13.1731C10.6845 13.2011 10.7442 13.2758 10.7252 13.3411ZM11.3802 13.3905C11.3822 13.4581 11.3055 13.5138 11.2102 13.5151C11.1145 13.5175 11.0372 13.4628 11.0362 13.3961C11.0362 13.3278 11.1115 13.2725 11.2069 13.2708C11.3022 13.2688 11.3802 13.3231 11.3802 13.3905ZM11.9892 13.2841C12.0005 13.3501 11.9345 13.4178 11.8402 13.4358C11.7472 13.4531 11.6612 13.4125 11.6495 13.3471C11.6379 13.2795 11.7052 13.2115 11.7979 13.1938C11.8925 13.1771 11.9772 13.2175 11.9892 13.2841Z" fill="black"/>
</g>
<defs>
<clipPath id="clip0_1_385">
<rect width="16" height="16" fill="white" transform="translate(6.02759)"/>
</clipPath>
</defs>
</svg>
