<svg width="20" height="20" viewBox="0 0 20 20" fill="none" xmlns="http://www.w3.org/2000/svg">
<g clip-path="url(#clip0_1_421)">
<path d="M13.0493 6.25C12.4939 2.76172 11.1838 0.3125 9.65918 0.3125C8.13458 0.3125 6.8245 2.76172 6.26906 6.25H13.0493ZM5.98176 10C5.98176 10.8672 6.02773 11.6992 6.10817 12.5H13.2064C13.2868 11.6992 13.3328 10.8672 13.3328 10C13.3328 9.13281 13.2868 8.30078 13.2064 7.5H6.10817C6.02773 8.30078 5.98176 9.13281 5.98176 10ZM18.4199 6.25C17.3243 3.59766 15.1064 1.54688 12.3674 0.71875C13.3021 2.03906 13.9457 4.02734 14.2828 6.25H18.4199ZM6.94708 0.71875C4.212 1.54688 1.99023 3.59766 0.898494 6.25H5.03559C5.36886 4.02734 6.01241 2.03906 6.94708 0.71875ZM18.8297 7.5H14.436C14.5164 8.32031 14.5624 9.16016 14.5624 10C14.5624 10.8398 14.5164 11.6797 14.436 12.5H18.8259C19.0366 11.6992 19.1553 10.8672 19.1553 10C19.1553 9.13281 19.0366 8.30078 18.8297 7.5ZM4.75595 10C4.75595 9.16016 4.80192 8.32031 4.88237 7.5H0.488615C0.28176 8.30078 0.15918 9.13281 0.15918 10C0.15918 10.8672 0.28176 11.6992 0.488615 12.5H4.87853C4.80192 11.6797 4.75595 10.8398 4.75595 10ZM6.26906 13.75C6.8245 17.2383 8.13458 19.6875 9.65918 19.6875C11.1838 19.6875 12.4939 17.2383 13.0493 13.75H6.26906ZM12.3713 19.2812C15.1064 18.4531 17.3281 16.4023 18.4237 13.75H14.2866C13.9495 15.9727 13.306 17.9609 12.3713 19.2812ZM0.898494 13.75C1.99406 16.4023 4.212 18.4531 6.95091 19.2812C6.01624 17.9609 5.37269 15.9727 5.03559 13.75H0.898494Z" fill="#848895"/>
</g>
<defs>
<clipPath id="clip0_1_421">
<rect width="19" height="20" fill="white" transform="translate(0.15918)"/>
</clipPath>
</defs>
</svg>
