<svg width="16" height="16" viewBox="0 0 16 16" fill="none" xmlns="http://www.w3.org/2000/svg">
<path d="M14.9118 4.25151C14.3913 4.48253 13.839 4.63389 13.2735 4.70053C13.8694 4.3443 14.3152 3.7833 14.5277 3.12234C13.9678 3.45479 13.3552 3.68902 12.7164 3.81492C12.4495 3.53016 12.1271 3.30326 11.7689 3.1483C11.4108 2.99333 11.0246 2.91361 10.6344 2.91406C9.05933 2.91406 7.78227 4.19112 7.78227 5.76648C7.78227 5.98972 7.80739 6.20731 7.85621 6.41644C5.48555 6.29734 3.38356 5.16196 1.97669 3.43617C1.72294 3.8715 1.58968 4.36654 1.59061 4.87043C1.59061 5.8599 2.09409 6.73309 2.85948 7.24448C2.40652 7.2301 1.96354 7.1077 1.56747 6.88747L1.56718 6.92359C1.56718 8.30535 2.55044 9.45794 3.85544 9.72041C3.43524 9.83416 2.99466 9.85076 2.5671 9.76895C2.93032 10.9021 3.98357 11.727 5.23155 11.7499C4.22125 12.5429 2.97351 12.9731 1.6891 12.971C1.45909 12.971 1.2319 12.9575 1.00867 12.931C2.31283 13.7692 3.83081 14.2141 5.38113 14.2125C10.6279 14.2125 13.4967 9.86632 13.4967 6.09696C13.4967 5.97335 13.4942 5.85002 13.4888 5.72753C14.0473 5.3243 14.5292 4.82442 14.9118 4.25151Z" fill="black"/>
</svg>
