<svg width="32" height="27" viewBox="0 0 32 27" fill="none" xmlns="http://www.w3.org/2000/svg">
<g clip-path="url(#clip0_1_370)">
<path d="M31.059 21.2998L26.0509 26.6318C25.943 26.7488 25.8118 26.842 25.6658 26.9053C25.5198 26.9687 25.3621 27.0009 25.2029 26.9998H1.46295C1.34979 26.9992 1.23919 26.9661 1.14433 26.9044C1.04948 26.8427 0.974364 26.755 0.927951 26.6518C0.882407 26.5488 0.868485 26.4347 0.887951 26.3238C0.907834 26.2124 0.959189 26.109 1.03595 26.0258L6.03795 20.6938C6.1458 20.5767 6.27697 20.4834 6.42301 20.4201C6.56906 20.3567 6.72675 20.3246 6.88595 20.3258H30.6259C30.7397 20.3227 30.8519 20.3535 30.9481 20.4143C31.0443 20.4751 31.1203 20.5631 31.1664 20.6672C31.2125 20.7712 31.2266 20.8867 31.2069 20.9988C31.1873 21.1109 31.1347 21.2146 31.056 21.2968L31.059 21.2998ZM26.0499 10.5598C25.9402 10.4451 25.8087 10.3534 25.6631 10.2902C25.5175 10.227 25.3607 10.1936 25.202 10.1918H1.46295C1.34968 10.1925 1.239 10.2257 1.14414 10.2876C1.04927 10.3495 0.974216 10.4374 0.927951 10.5408C0.882466 10.6438 0.868545 10.7579 0.887951 10.8688C0.907951 10.9808 0.958951 11.0818 1.03595 11.1658L6.03795 16.5008C6.14495 16.6158 6.27795 16.7088 6.42195 16.7708C6.56895 16.8348 6.72495 16.8658 6.88595 16.8688H30.6259C30.7385 16.8691 30.8487 16.8362 30.9428 16.7743C31.0368 16.7125 31.1106 16.6243 31.1549 16.5208C31.2006 16.4179 31.2147 16.3038 31.1955 16.1929C31.1762 16.082 31.1245 15.9793 31.0469 15.8978L26.0469 10.5628L26.0499 10.5598ZM1.46195 6.72979H25.202C25.3615 6.72895 25.5192 6.69631 25.6659 6.63379C25.8129 6.56979 25.9429 6.47979 26.0499 6.36179L31.0599 1.02979C31.1178 0.968025 31.1613 0.894341 31.1876 0.813923C31.2139 0.733506 31.2222 0.648308 31.212 0.564326C31.2018 0.480344 31.1733 0.399617 31.1286 0.327825C31.0838 0.256034 31.0239 0.194922 30.9529 0.148791C30.8567 0.0871422 30.7442 0.0557901 30.6299 0.0587907H6.88595C6.72795 0.0587907 6.56895 0.0927907 6.42195 0.153791C6.27613 0.216693 6.14527 0.30973 6.03795 0.426791L1.03595 5.75879C0.95943 5.84136 0.9085 5.94435 0.889331 6.05529C0.870162 6.16622 0.883577 6.28033 0.927951 6.38379C0.974293 6.48684 1.04925 6.57442 1.14391 6.63611C1.23858 6.6978 1.34896 6.73101 1.46195 6.73179V6.72979Z" fill="url(#paint0_linear_1_370)"/>
</g>
<defs>
<linearGradient id="paint0_linear_1_370" x1="3.44095" y1="27.6418" x2="28.1379" y2="-0.397209" gradientUnits="userSpaceOnUse">
<stop offset="0.08" stop-color="#9945FF"/>
<stop offset="0.3" stop-color="#8752F3"/>
<stop offset="0.5" stop-color="#5497D5"/>
<stop offset="0.6" stop-color="#43B4CA"/>
<stop offset="0.72" stop-color="#28E0B9"/>
<stop offset="0.97" stop-color="#19FB9B"/>
</linearGradient>
<clipPath id="clip0_1_370">
<rect width="31" height="27" fill="white" transform="translate(0.879883)"/>
</clipPath>
</defs>
</svg>
