<svg width="186" height="65" viewBox="0 0 186 65" fill="none" xmlns="http://www.w3.org/2000/svg">
<g clip-path="url(#clip0_1_180)">
<path d="M101.109 30.5438H96.1967L106.984 18.9738L114.753 27.3031H120.776L109.998 15.7424L124.676 0H122.986L115.443 8.07548H110.28L103.223 15.6464H97.701V8.07548H93.9156V26.9998H97.701V19.4319H103.223L104.034 20.3017L90.746 34.5738H83.4134V42.4048L67.3491 59.6545H69.0453L88.2358 39.0805V50.081H92.6403V43.0981H101.115C102.78 43.0981 104.377 42.4366 105.554 41.2595C106.731 40.0824 107.392 38.4859 107.392 36.821C107.392 35.156 106.731 33.5595 105.554 32.3824C104.377 31.2053 102.78 30.5438 101.115 30.5438H101.109ZM115.022 26.684L107.621 18.7479L109.788 16.4264L119.352 26.684H115.022ZM92.6341 34.9483H101.109C101.593 34.9681 102.05 35.174 102.386 35.5234C102.721 35.8726 102.908 36.3381 102.908 36.8225C102.908 37.3069 102.721 37.7724 102.386 38.1216C102.05 38.471 101.593 38.6769 101.109 38.6967H92.6341V34.9483ZM101.109 42.479H92.0151V49.4681H88.8486V38.8112L92.0151 35.4281V39.3095H101.109C101.769 39.307 102.402 39.0433 102.869 38.576C103.336 38.1086 103.599 37.4753 103.601 36.8148C103.595 36.157 103.33 35.5284 102.864 35.0647C102.397 34.6011 101.767 34.3401 101.109 34.3386H93.0458L96.0079 31.1721H101.109C102.609 31.1721 104.049 31.7683 105.11 32.8293C106.171 33.8904 106.767 35.3297 106.767 36.8302C106.767 38.3308 106.171 39.7701 105.11 40.8311C104.049 41.8922 102.609 42.4883 101.109 42.4883V42.479Z" fill="white"/>
<path d="M125.038 30.5437H113.391C112.243 30.5478 111.143 31.0055 110.331 31.8174C109.519 32.6293 109.061 33.729 109.057 34.8771V45.7475C109.061 46.8956 109.519 47.9953 110.331 48.8072C111.143 49.6191 112.243 50.0769 113.391 50.0809H125.038C126.187 50.0809 127.29 49.6243 128.102 48.8115C128.915 47.999 129.371 46.8968 129.371 45.7475V34.8802C129.372 34.3109 129.26 33.747 129.042 33.2208C128.825 32.6949 128.506 32.2167 128.103 31.814C127.701 31.4113 127.223 31.0919 126.697 30.8739C126.171 30.6559 125.607 30.5437 125.038 30.5437ZM128.752 45.7506C128.752 46.7359 128.361 47.6805 127.664 48.3769C126.968 49.0737 126.023 49.4649 125.038 49.4649H113.394C112.41 49.4609 111.468 49.0681 110.772 48.3726C110.076 47.6768 109.684 46.7343 109.68 45.7506V34.8802C109.684 33.8962 110.076 32.954 110.772 32.2582C111.468 31.5627 112.41 31.1699 113.394 31.1659H125.038C126.023 31.1659 126.968 31.5571 127.664 32.2539C128.361 32.9503 128.752 33.8949 128.752 34.8802V45.7506Z" fill="white"/>
<path d="M112.84 46.3017H125.589V34.3293H112.84V46.3017ZM113.459 34.9484H124.97V45.6827H113.459V34.9484Z" fill="white"/>
<path d="M131.879 50.0871H136.283V30.5437H131.879V50.0871ZM132.498 31.1628H135.664V49.468H132.498V31.1628Z" fill="white"/>
<path d="M154.666 45.6825H154.338L147.07 32.0202C146.833 31.5748 146.479 31.2024 146.047 30.9423C145.615 30.6822 145.12 30.5445 144.615 30.5437H141.536C140.797 30.5437 140.088 30.8372 139.566 31.3596C139.043 31.8821 138.75 32.5906 138.75 33.3294V50.0871H143.155V34.9483H143.64L150.902 48.6106C151.139 49.056 151.492 49.4284 151.925 49.6884C152.357 49.9484 152.852 50.0861 153.356 50.0871H156.3C157.039 50.0871 157.747 49.7936 158.27 49.2712C158.792 48.7487 159.086 48.0402 159.086 47.3014V30.5437H154.666V45.6825ZM155.285 31.1628H158.467V47.3014C158.467 47.8758 158.238 48.4271 157.832 48.8335C157.426 49.2396 156.875 49.468 156.3 49.468H153.36C152.967 49.4674 152.582 49.3603 152.246 49.1582C151.909 48.9561 151.634 48.666 151.45 48.3197L144.021 34.3292H142.545V49.468H139.369V33.3294C139.369 32.7547 139.597 32.2037 140.004 31.7973C140.41 31.3909 140.961 31.1628 141.536 31.1628H144.615C145.007 31.1637 145.392 31.2711 145.728 31.4732C146.063 31.6757 146.338 31.9651 146.522 32.3111L153.951 46.3016H155.269L155.285 31.1628Z" fill="white"/>
<path d="M161.519 30.5437V34.9483H169.09V50.0871H173.494V34.9483H181.062V30.5437H161.519ZM180.443 34.3292H172.875V49.468H169.709V34.3292H162.138V31.1628H180.443V34.3292Z" fill="white"/>
<path d="M18.5619 8.07544H4.6333V26.9997H18.5619C19.6583 26.9995 20.732 26.6871 21.6573 26.0989C22.5826 25.5108 23.3214 24.6713 23.787 23.6786C24.2526 22.686 24.4259 21.5813 24.2866 20.4938C24.1474 19.4062 23.7012 18.3808 23.0004 17.5376C23.7012 16.6943 24.1474 15.669 24.2866 14.5814C24.4259 13.4939 24.2526 12.3891 23.787 11.3965C23.3214 10.4039 22.5826 9.56437 21.6573 8.97625C20.732 8.38809 19.6583 8.07566 18.5619 8.07544ZM8.41878 11.8609H18.1719C18.5668 11.8599 18.9531 11.9764 19.2817 12.1956C19.6102 12.4148 19.8661 12.7268 20.0168 13.0919C20.1674 13.4569 20.2061 13.8586 20.1278 14.2457C20.0495 14.6328 19.8578 14.9878 19.5771 15.2657C19.4749 15.368 19.3606 15.4574 19.2366 15.5319C18.9194 15.7364 18.5493 15.844 18.1719 15.8414H8.41878V11.8609ZM18.1719 23.2142H8.41878V19.2369H18.1719C18.6997 19.2369 19.2059 19.4465 19.5792 19.8198C19.9524 20.193 20.1621 20.6992 20.1621 21.2271C20.1621 21.7549 19.9524 22.2612 19.5792 22.6344C19.2059 23.0076 18.6997 23.2173 18.1719 23.2173V23.2142Z" fill="white"/>
<path d="M45.9857 12.9566C45.731 11.5837 45.003 10.3436 43.9286 9.45181C42.8543 8.56001 41.501 8.073 40.1048 8.07545H27.5381V26.9997H31.3359V20.0138H38.1795L41.8938 26.9997H46.1838L42.259 19.6176C43.5606 19.1175 44.6458 18.1775 45.3264 16.9608C46.0074 15.7441 46.2404 14.3274 45.9857 12.9566ZM40.1048 16.2283H31.3359V11.8609H40.1171C40.4109 11.8499 40.7037 11.8982 40.9782 12.0029C41.2528 12.1077 41.5035 12.2667 41.7152 12.4706C41.9269 12.6745 42.0953 12.919 42.2104 13.1894C42.3253 13.4599 42.3847 13.7507 42.3847 14.0446C42.3847 14.3385 42.3253 14.6294 42.2104 14.8998C42.0953 15.1703 41.9269 15.4148 41.7152 15.6186C41.5035 15.8225 41.2528 15.9816 40.9782 16.0863C40.7037 16.1911 40.4109 16.2394 40.1171 16.2283H40.1048Z" fill="white"/>
<path d="M67.7854 23.2142H53.0335V19.4319H67.7854V15.6464H53.0335V11.8609H67.7854V8.07544H49.248V26.9997H67.7854V23.2142Z" fill="white"/>
<path d="M74.8952 20.7907H87.0285V26.9997H90.8109V11.3285C90.8109 10.4663 90.4686 9.63931 89.8591 9.02933C89.2497 8.41935 88.4232 8.07624 87.5609 8.07544H74.3535C73.4912 8.07624 72.6648 8.41935 72.0553 9.02933C71.4458 9.63931 71.1035 10.4663 71.1035 11.3285V26.9997H74.8952V20.7907ZM74.8952 11.8609H87.0285V17.0052H74.8952V11.8609Z" fill="white"/>
<path d="M140.777 59.4657H138.747V57.9924C138.747 57.7748 138.79 57.559 138.873 57.3579C138.957 57.157 139.079 56.974 139.233 56.8202C139.387 56.6667 139.57 56.5447 139.771 56.4615C139.973 56.3785 140.188 56.3361 140.406 56.3364H144.365C144.582 56.3361 144.798 56.3785 144.999 56.4615C145.201 56.5447 145.384 56.6667 145.538 56.8202C145.692 56.974 145.814 57.157 145.897 57.3579C145.981 57.559 146.024 57.7748 146.024 57.9924V59.181C146.025 59.4406 145.966 59.6972 145.849 59.9294C145.733 60.1618 145.564 60.3633 145.355 60.5181L141.768 63.2543H146.123V65H138.747V63.4276L143.845 59.5771C143.894 59.5425 143.933 59.4957 143.959 59.4416C143.985 59.3874 143.997 59.3277 143.993 59.2676V58.4381C143.993 58.3418 143.956 58.249 143.889 58.1796C143.822 58.1103 143.73 58.0698 143.634 58.0667H141.158C141.06 58.0667 140.965 58.1057 140.896 58.1756C140.826 58.2453 140.787 58.3397 140.787 58.4381L140.777 59.4657Z" fill="white"/>
<path d="M147.674 63.341V57.9924C147.674 57.7748 147.717 57.559 147.8 57.3579C147.883 57.157 148.006 56.974 148.16 56.8202C148.314 56.6667 148.497 56.5447 148.698 56.4615C148.899 56.3785 149.115 56.3361 149.333 56.3364H153.935C154.153 56.3361 154.369 56.3785 154.57 56.4615C154.771 56.5447 154.954 56.6667 155.108 56.8202C155.262 56.974 155.384 57.157 155.468 57.3579C155.551 57.559 155.594 57.7748 155.594 57.9924V63.341C155.594 63.5589 155.551 63.7746 155.468 63.9758C155.385 64.1773 155.262 64.3599 155.108 64.514C154.954 64.6682 154.771 64.7905 154.57 64.8737C154.369 64.957 154.153 65 153.935 65H149.333C149.115 65 148.899 64.957 148.698 64.8737C148.497 64.7905 148.314 64.6682 148.16 64.514C148.005 64.3599 147.883 64.1773 147.8 63.9758C147.717 63.7746 147.674 63.5589 147.674 63.341ZM149.704 62.8829C149.704 62.9813 149.743 63.076 149.813 63.1456C149.883 63.2153 149.977 63.2543 150.075 63.2543H153.205C153.303 63.2518 153.396 63.2122 153.465 63.1429C153.534 63.0738 153.574 62.9807 153.576 62.8829V58.4505C153.574 58.3527 153.534 58.2595 153.465 58.1905C153.396 58.1215 153.303 58.0815 153.205 58.079H150.075C149.977 58.079 149.883 58.118 149.813 58.1877C149.743 58.2576 149.704 58.352 149.704 58.4505V62.8829Z" fill="white"/>
<path d="M159.175 59.4657H157.145V57.9924C157.145 57.7748 157.188 57.559 157.271 57.3579C157.355 57.157 157.477 56.974 157.631 56.8202C157.785 56.6667 157.968 56.5447 158.17 56.4615C158.371 56.3785 158.586 56.3361 158.804 56.3364H162.763C162.98 56.3361 163.196 56.3785 163.397 56.4615C163.599 56.5447 163.782 56.6667 163.936 56.8202C164.09 56.974 164.212 57.157 164.296 57.3579C164.379 57.559 164.422 57.7748 164.422 57.9924V59.181C164.423 59.4406 164.364 59.6972 164.247 59.9294C164.131 60.1618 163.962 60.3633 163.753 60.5181L160.166 63.2543H164.521V65H157.145V63.4276L162.243 59.5771C162.292 59.5425 162.331 59.4957 162.357 59.4416C162.383 59.3874 162.395 59.3277 162.391 59.2676V58.4381C162.391 58.3418 162.354 58.249 162.287 58.1796C162.22 58.1103 162.129 58.0698 162.032 58.0667H159.556C159.458 58.0667 159.363 58.1057 159.293 58.1756C159.224 58.2453 159.185 58.3397 159.185 58.4381L159.175 59.4657Z" fill="white"/>
<path d="M167.978 59.4657H165.948V57.9924C165.948 57.7748 165.991 57.559 166.074 57.3579C166.158 57.157 166.28 56.974 166.434 56.8202C166.588 56.6667 166.771 56.5447 166.972 56.4615C167.173 56.3785 167.389 56.3361 167.607 56.3364H171.566C171.783 56.3361 171.999 56.3785 172.2 56.4615C172.402 56.5447 172.585 56.6667 172.738 56.8202C172.893 56.974 173.015 57.157 173.098 57.3579C173.182 57.559 173.225 57.7748 173.225 57.9924V59.181C173.226 59.4406 173.166 59.6972 173.05 59.9294C172.934 60.1618 172.765 60.3633 172.556 60.5181L168.966 63.2543H173.324V65H165.948V63.4276L171.046 59.5771C171.095 59.5425 171.134 59.4957 171.16 59.4416C171.186 59.3874 171.198 59.3277 171.194 59.2676V58.4381C171.194 58.3418 171.157 58.249 171.09 58.1796C171.023 58.1103 170.931 58.0698 170.835 58.0667H168.359C168.261 58.0676 168.167 58.1069 168.098 58.1765C168.029 58.2462 167.991 58.34 167.991 58.4381L167.978 59.4657Z" fill="white"/>
</g>
<defs>
<clipPath id="clip0_1_180">
<rect width="185" height="65" fill="white" transform="translate(0.347656)"/>
</clipPath>
</defs>
</svg>
