<svg width="16" height="16" viewBox="0 0 16 16" fill="none" xmlns="http://www.w3.org/2000/svg">
<path d="M15.5334 4.86683C15.5334 4.7335 15.3334 3.66683 14.8667 3.20016C14.2667 2.5335 13.6 2.46683 13.2667 2.46683H13.2C11.1334 2.3335 8.06671 2.3335 8.00004 2.3335C8.00004 2.3335 4.86671 2.3335 2.80004 2.46683H2.73337C2.40004 2.46683 1.73337 2.5335 1.13337 3.20016C0.666707 3.7335 0.466707 4.80016 0.466707 4.9335C0.466707 5.00016 0.333374 6.20016 0.333374 7.46683V8.60016C0.333374 9.86683 0.466707 11.0668 0.466707 11.1335C0.466707 11.2668 0.666707 12.3335 1.13337 12.8002C1.66671 13.4002 2.33337 13.4668 2.73337 13.5335H2.93337C4.13337 13.6668 7.80004 13.6668 7.93337 13.6668C7.93337 13.6668 11.0667 13.6668 13.1334 13.5335H13.2C13.5334 13.4668 14.2 13.4002 14.8 12.8002C15.2667 12.2668 15.4667 11.2002 15.4667 11.0668C15.4667 11.0002 15.6 9.80016 15.6 8.5335V7.40016C15.6667 6.20016 15.5334 4.9335 15.5334 4.86683ZM10.6 8.1335L6.60004 10.2668C6.53337 10.2668 6.53337 10.3335 6.46671 10.3335C6.40004 10.3335 6.33337 10.3335 6.33337 10.2668C6.26671 10.2002 6.20004 10.1335 6.20004 10.0002V5.66683C6.20004 5.5335 6.26671 5.46683 6.33337 5.40016C6.40004 5.3335 6.53337 5.3335 6.66671 5.40016L10.6667 7.5335C10.8 7.60016 10.8667 7.66683 10.8667 7.80016C10.8667 7.9335 10.7334 8.06683 10.6 8.1335Z" fill="black"/>
</svg>
